<?xml version="1.0" encoding="utf-8" standalone="no"?>
<!DOCTYPE svg PUBLIC "-//W3C//DTD SVG 1.1//EN"
  "http://www.w3.org/Graphics/SVG/1.1/DTD/svg11.dtd">
<svg xmlns:xlink="http://www.w3.org/1999/xlink" width="728.393369pt" height="512.714135pt" viewBox="0 0 728.393369 512.714135" xmlns="http://www.w3.org/2000/svg" version="1.1">
 <metadata>
  <rdf:RDF xmlns:dc="http://purl.org/dc/elements/1.1/" xmlns:cc="http://creativecommons.org/ns#" xmlns:rdf="http://www.w3.org/1999/02/22-rdf-syntax-ns#">
   <cc:Work>
    <dc:type rdf:resource="http://purl.org/dc/dcmitype/StillImage"/>
    <dc:date>2024-04-24T10:07:08.600258</dc:date>
    <dc:format>image/svg+xml</dc:format>
    <dc:creator>
     <cc:Agent>
      <dc:title>Matplotlib v3.8.3, https://matplotlib.org/</dc:title>
     </cc:Agent>
    </dc:creator>
   </cc:Work>
  </rdf:RDF>
 </metadata>
 <defs>
  <style type="text/css">*{stroke-linejoin: round; stroke-linecap: butt}</style>
 </defs>
 <g id="figure_1">
  <g id="patch_1">
   <path d="M 0 512.714135 
L 728.393369 512.714135 
L 728.393369 0 
L 0 0 
z
" style="fill: #ffffff"/>
  </g>
  <g id="axes_1">
   <g id="patch_2">
    <path d="M 40.603125 402.84327 
L 716.548516 402.84327 
L 716.548516 7.2 
L 40.603125 7.2 
z
" style="fill: #ffffff"/>
   </g>
   <g id="PathCollection_1">
    <defs>
     <path id="m3dfb84c84c" d="M -0 2.236068 
L 2.236068 -2.236068 
L -2.236068 -2.236068 
z
" style="stroke: #0000ff"/>
    </defs>
    <g clip-path="url(#pdd56b4adf0)">
     <use xlink:href="#m3dfb84c84c" x="91.762384" y="344.038281" style="fill: #0000ff; stroke: #0000ff"/>
    </g>
   </g>
   <g id="PathCollection_2">
    <defs>
     <path id="m67b7d271f5" d="M 0 1.581139 
C 0.419323 1.581139 0.821528 1.41454 1.118034 1.118034 
C 1.41454 0.821528 1.581139 0.419323 1.581139 0 
C 1.581139 -0.419323 1.41454 -0.821528 1.118034 -1.118034 
C 0.821528 -1.41454 0.419323 -1.581139 0 -1.581139 
C -0.419323 -1.581139 -0.821528 -1.41454 -1.118034 -1.118034 
C -1.41454 -0.821528 -1.581139 -0.419323 -1.581139 0 
C -1.581139 0.419323 -1.41454 0.821528 -1.118034 1.118034 
C -0.821528 1.41454 -0.419323 1.581139 0 1.581139 
z
" style="stroke: #0000ff"/>
    </defs>
    <g clip-path="url(#pdd56b4adf0)">
     <use xlink:href="#m67b7d271f5" x="101.419121" y="298.411428" style="fill: #0000ff; stroke: #0000ff"/>
    </g>
   </g>
   <g id="PathCollection_3">
    <defs>
     <path id="mefd2dba91d" d="M -1.581139 0 
L 1.581139 0 
M 0 1.581139 
L 0 -1.581139 
" style="stroke: #0000ff; stroke-width: 1.5"/>
    </defs>
    <g clip-path="url(#pdd56b4adf0)">
     <use xlink:href="#mefd2dba91d" x="94.628415" y="298.055663" style="fill: #0000ff; stroke: #0000ff; stroke-width: 1.5"/>
    </g>
   </g>
   <g id="PathCollection_4">
    <defs>
     <path id="md73c9ff2a6" d="M 0 -2.236068 
L -0.502029 -0.690983 
L -2.126627 -0.690983 
L -0.812299 0.263932 
L -1.314328 1.809017 
L -0 0.854102 
L 1.314328 1.809017 
L 0.812299 0.263932 
L 2.126627 -0.690983 
L 0.502029 -0.690983 
z
" style="stroke: #0000ff"/>
    </defs>
    <g clip-path="url(#pdd56b4adf0)">
     <use xlink:href="#md73c9ff2a6" x="245.903584" y="383.439301" style="fill: #0000ff; stroke: #0000ff"/>
    </g>
   </g>
   <g id="PathCollection_5">
    <defs>
     <path id="mae424d75ce" d="M 0 -2.236068 
L -2.236068 2.236068 
L 2.236068 2.236068 
z
" style="stroke: #0000ff"/>
    </defs>
    <g clip-path="url(#pdd56b4adf0)">
     <use xlink:href="#mae424d75ce" x="71.327916" y="25.183785" style="fill: #0000ff; stroke: #0000ff"/>
    </g>
   </g>
   <g id="PathCollection_6">
    <defs>
     <path id="mf864b6cf63" d="M -0 2.236068 
L 2.236068 -2.236068 
L -2.236068 -2.236068 
z
" style="stroke: #008000"/>
    </defs>
    <g clip-path="url(#pdd56b4adf0)">
     <use xlink:href="#mf864b6cf63" x="92.995987" y="344.769907" style="fill: #008000; stroke: #008000"/>
    </g>
   </g>
   <g id="PathCollection_7">
    <defs>
     <path id="m5108c69a25" d="M 0 1.581139 
C 0.419323 1.581139 0.821528 1.41454 1.118034 1.118034 
C 1.41454 0.821528 1.581139 0.419323 1.581139 0 
C 1.581139 -0.419323 1.41454 -0.821528 1.118034 -1.118034 
C 0.821528 -1.41454 0.419323 -1.581139 0 -1.581139 
C -0.419323 -1.581139 -0.821528 -1.41454 -1.118034 -1.118034 
C -1.41454 -0.821528 -1.581139 -0.419323 -1.581139 0 
C -1.581139 0.419323 -1.41454 0.821528 -1.118034 1.118034 
C -0.821528 1.41454 -0.419323 1.581139 0 1.581139 
z
" style="stroke: #008000"/>
    </defs>
    <g clip-path="url(#pdd56b4adf0)">
     <use xlink:href="#m5108c69a25" x="101.62309" y="299.209684" style="fill: #008000; stroke: #008000"/>
    </g>
   </g>
   <g id="PathCollection_8">
    <defs>
     <path id="ma443937eb2" d="M -1.581139 0 
L 1.581139 0 
M 0 1.581139 
L 0 -1.581139 
" style="stroke: #008000; stroke-width: 1.5"/>
    </defs>
    <g clip-path="url(#pdd56b4adf0)">
     <use xlink:href="#ma443937eb2" x="95.331227" y="299.120743" style="fill: #008000; stroke: #008000; stroke-width: 1.5"/>
    </g>
   </g>
   <g id="PathCollection_9">
    <defs>
     <path id="m43c31e5169" d="M 0 -2.236068 
L -0.502029 -0.690983 
L -2.126627 -0.690983 
L -0.812299 0.263932 
L -1.314328 1.809017 
L -0 0.854102 
L 1.314328 1.809017 
L 0.812299 0.263932 
L 2.126627 -0.690983 
L 0.502029 -0.690983 
z
" style="stroke: #008000"/>
    </defs>
    <g clip-path="url(#pdd56b4adf0)">
     <use xlink:href="#m43c31e5169" x="248.350099" y="384.504504" style="fill: #008000; stroke: #008000"/>
    </g>
   </g>
   <g id="PathCollection_10">
    <defs>
     <path id="mcf1c56c863" d="M 0 -2.236068 
L -2.236068 2.236068 
L 2.236068 2.236068 
z
" style="stroke: #008000"/>
    </defs>
    <g clip-path="url(#pdd56b4adf0)">
     <use xlink:href="#mcf1c56c863" x="72.745042" y="25.981651" style="fill: #008000; stroke: #008000"/>
    </g>
   </g>
   <g id="PathCollection_11">
    <defs>
     <path id="m0688b8eb62" d="M -0 2.236068 
L 2.236068 -2.236068 
L -2.236068 -2.236068 
z
" style="stroke: #ff0000"/>
    </defs>
    <g clip-path="url(#pdd56b4adf0)">
     <use xlink:href="#m0688b8eb62" x="96.320668" y="344.952824" style="fill: #ff0000; stroke: #ff0000"/>
    </g>
   </g>
   <g id="PathCollection_12">
    <defs>
     <path id="m20f1a9950d" d="M 0 1.581139 
C 0.419323 1.581139 0.821528 1.41454 1.118034 1.118034 
C 1.41454 0.821528 1.581139 0.419323 1.581139 0 
C 1.581139 -0.419323 1.41454 -0.821528 1.118034 -1.118034 
C 0.821528 -1.41454 0.419323 -1.581139 0 -1.581139 
C -0.419323 -1.581139 -0.821528 -1.41454 -1.118034 -1.118034 
C -1.41454 -0.821528 -1.581139 -0.419323 -1.581139 0 
C -1.581139 0.419323 -1.41454 0.821528 -1.118034 1.118034 
C -0.821528 1.41454 -0.419323 1.581139 0 1.581139 
z
" style="stroke: #ff0000"/>
    </defs>
    <g clip-path="url(#pdd56b4adf0)">
     <use xlink:href="#m20f1a9950d" x="104.728291" y="299.409249" style="fill: #ff0000; stroke: #ff0000"/>
    </g>
   </g>
   <g id="PathCollection_13">
    <defs>
     <path id="me251c3cd28" d="M -1.581139 0 
L 1.581139 0 
M 0 1.581139 
L 0 -1.581139 
" style="stroke: #ff0000; stroke-width: 1.5"/>
    </defs>
    <g clip-path="url(#pdd56b4adf0)">
     <use xlink:href="#me251c3cd28" x="98.66834" y="299.387014" style="fill: #ff0000; stroke: #ff0000; stroke-width: 1.5"/>
    </g>
   </g>
   <g id="PathCollection_14">
    <defs>
     <path id="m0b67fb158e" d="M 0 -2.236068 
L -0.502029 -0.690983 
L -2.126627 -0.690983 
L -0.812299 0.263932 
L -1.314328 1.809017 
L -0 0.854102 
L 1.314328 1.809017 
L 0.812299 0.263932 
L 2.126627 -0.690983 
L 0.502029 -0.690983 
z
" style="stroke: #ff0000"/>
    </defs>
    <g clip-path="url(#pdd56b4adf0)">
     <use xlink:href="#m0b67fb158e" x="254.502597" y="384.770805" style="fill: #ff0000; stroke: #ff0000"/>
    </g>
   </g>
   <g id="PathCollection_15">
    <defs>
     <path id="m44e11ed0be" d="M 0 -2.236068 
L -2.236068 2.236068 
L 2.236068 2.236068 
z
" style="stroke: #ff0000"/>
    </defs>
    <g clip-path="url(#pdd56b4adf0)">
     <use xlink:href="#m44e11ed0be" x="77.557364" y="26.181117" style="fill: #ff0000; stroke: #ff0000"/>
    </g>
   </g>
   <g id="PathCollection_16">
    <defs>
     <path id="m89cb02cbea" d="M -0 2.236068 
L 2.236068 -2.236068 
L -2.236068 -2.236068 
z
" style="stroke: #00bfbf"/>
    </defs>
    <g clip-path="url(#pdd56b4adf0)">
     <use xlink:href="#m89cb02cbea" x="109.429982" y="344.998554" style="fill: #00bfbf; stroke: #00bfbf"/>
    </g>
   </g>
   <g id="PathCollection_17">
    <defs>
     <path id="m648deb907a" d="M 0 1.581139 
C 0.419323 1.581139 0.821528 1.41454 1.118034 1.118034 
C 1.41454 0.821528 1.581139 0.419323 1.581139 0 
C 1.581139 -0.419323 1.41454 -0.821528 1.118034 -1.118034 
C 0.821528 -1.41454 0.419323 -1.581139 0 -1.581139 
C -0.419323 -1.581139 -0.821528 -1.41454 -1.118034 -1.118034 
C -1.41454 -0.821528 -1.581139 -0.419323 -1.581139 0 
C -1.581139 0.419323 -1.41454 0.821528 -1.118034 1.118034 
C -0.821528 1.41454 -0.419323 1.581139 0 1.581139 
z
" style="stroke: #00bfbf"/>
    </defs>
    <g clip-path="url(#pdd56b4adf0)">
     <use xlink:href="#m648deb907a" x="115.182494" y="299.45914" style="fill: #00bfbf; stroke: #00bfbf"/>
    </g>
   </g>
   <g id="PathCollection_18">
    <defs>
     <path id="m040e8036f4" d="M -1.581139 0 
L 1.581139 0 
M 0 1.581139 
L 0 -1.581139 
" style="stroke: #00bfbf; stroke-width: 1.5"/>
    </defs>
    <g clip-path="url(#pdd56b4adf0)">
     <use xlink:href="#m040e8036f4" x="109.9659" y="299.453581" style="fill: #00bfbf; stroke: #00bfbf; stroke-width: 1.5"/>
    </g>
   </g>
   <g id="PathCollection_19">
    <defs>
     <path id="m49fbe82d0d" d="M 0 -2.236068 
L -0.502029 -0.690983 
L -2.126627 -0.690983 
L -0.812299 0.263932 
L -1.314328 1.809017 
L -0 0.854102 
L 1.314328 1.809017 
L 0.812299 0.263932 
L 2.126627 -0.690983 
L 0.502029 -0.690983 
z
" style="stroke: #00bfbf"/>
    </defs>
    <g clip-path="url(#pdd56b4adf0)">
     <use xlink:href="#m49fbe82d0d" x="277.892321" y="384.83738" style="fill: #00bfbf; stroke: #00bfbf"/>
    </g>
   </g>
   <g id="PathCollection_20">
    <defs>
     <path id="m2a4c6e35a6" d="M 0 -2.236068 
L -2.236068 2.236068 
L 2.236068 2.236068 
z
" style="stroke: #00bfbf"/>
    </defs>
    <g clip-path="url(#pdd56b4adf0)">
     <use xlink:href="#m2a4c6e35a6" x="85.430046" y="26.230984" style="fill: #00bfbf; stroke: #00bfbf"/>
    </g>
   </g>
   <g id="PathCollection_21">
    <defs>
     <path id="m07a0df6cc6" d="M -0 2.236068 
L 2.236068 -2.236068 
L -2.236068 -2.236068 
z
" style="stroke: #bf00bf"/>
    </defs>
    <g clip-path="url(#pdd56b4adf0)">
     <use xlink:href="#m07a0df6cc6" x="127.284662" y="345.009987" style="fill: #bf00bf; stroke: #bf00bf"/>
    </g>
   </g>
   <g id="PathCollection_22">
    <defs>
     <path id="md075ff042f" d="M 0 1.581139 
C 0.419323 1.581139 0.821528 1.41454 1.118034 1.118034 
C 1.41454 0.821528 1.581139 0.419323 1.581139 0 
C 1.581139 -0.419323 1.41454 -0.821528 1.118034 -1.118034 
C 0.821528 -1.41454 0.419323 -1.581139 0 -1.581139 
C -0.419323 -1.581139 -0.821528 -1.41454 -1.118034 -1.118034 
C -1.41454 -0.821528 -1.581139 -0.419323 -1.581139 0 
C -1.581139 0.419323 -1.41454 0.821528 -1.118034 1.118034 
C -0.821528 1.41454 -0.419323 1.581139 0 1.581139 
z
" style="stroke: #bf00bf"/>
    </defs>
    <g clip-path="url(#pdd56b4adf0)">
     <use xlink:href="#md075ff042f" x="131.737242" y="299.471613" style="fill: #bf00bf; stroke: #bf00bf"/>
    </g>
   </g>
   <g id="PathCollection_23">
    <defs>
     <path id="m7f3ee13bbf" d="M -2.236068 0 
L 2.236068 0 
M 0 2.236068 
L 0 -2.236068 
" style="stroke: #bf00bf; stroke-width: 1.5"/>
    </defs>
    <g clip-path="url(#pdd56b4adf0)">
     <use xlink:href="#m7f3ee13bbf" x="125.210518" y="299.470223" style="fill: #bf00bf; stroke: #bf00bf; stroke-width: 1.5"/>
    </g>
   </g>
   <g id="PathCollection_24">
    <defs>
     <path id="m08c37b02cb" d="M 0 -2.236068 
L -0.502029 -0.690983 
L -2.126627 -0.690983 
L -0.812299 0.263932 
L -1.314328 1.809017 
L -0 0.854102 
L 1.314328 1.809017 
L 0.812299 0.263932 
L 2.126627 -0.690983 
L 0.502029 -0.690983 
z
" style="stroke: #bf00bf"/>
    </defs>
    <g clip-path="url(#pdd56b4adf0)">
     <use xlink:href="#m08c37b02cb" x="310.730494" y="384.854024" style="fill: #bf00bf; stroke: #bf00bf"/>
    </g>
   </g>
   <g id="PathCollection_25">
    <defs>
     <path id="mcbcfad98fc" d="M 0 -2.236068 
L -2.236068 2.236068 
L 2.236068 2.236068 
z
" style="stroke: #bf00bf"/>
    </defs>
    <g clip-path="url(#pdd56b4adf0)">
     <use xlink:href="#mcbcfad98fc" x="104.710145" y="26.243451" style="fill: #bf00bf; stroke: #bf00bf"/>
    </g>
   </g>
   <g id="PathCollection_26">
    <defs>
     <path id="m4c197d4997" d="M -0 2.236068 
L 2.236068 -2.236068 
L -2.236068 -2.236068 
z
" style="stroke: #800080"/>
    </defs>
    <g clip-path="url(#pdd56b4adf0)">
     <use xlink:href="#m4c197d4997" x="259.493038" y="345.012845" style="fill: #800080; stroke: #800080"/>
    </g>
   </g>
   <g id="PathCollection_27">
    <defs>
     <path id="mdb7bf37690" d="M 0 2.236068 
C 0.593012 2.236068 1.161816 2.000462 1.581139 1.581139 
C 2.000462 1.161816 2.236068 0.593012 2.236068 0 
C 2.236068 -0.593012 2.000462 -1.161816 1.581139 -1.581139 
C 1.161816 -2.000462 0.593012 -2.236068 0 -2.236068 
C -0.593012 -2.236068 -1.161816 -2.000462 -1.581139 -1.581139 
C -2.000462 -1.161816 -2.236068 -0.593012 -2.236068 0 
C -2.236068 0.593012 -2.000462 1.161816 -1.581139 1.581139 
C -1.161816 2.000462 -0.593012 2.236068 0 2.236068 
z
" style="stroke: #800080"/>
    </defs>
    <g clip-path="url(#pdd56b4adf0)">
     <use xlink:href="#mdb7bf37690" x="253.819541" y="299.474731" style="fill: #800080; stroke: #800080"/>
    </g>
   </g>
   <g id="PathCollection_28">
    <defs>
     <path id="m20f1ba8e53" d="M -2.236068 0 
L 2.236068 0 
M 0 2.236068 
L 0 -2.236068 
" style="stroke: #800080; stroke-width: 1.5"/>
    </defs>
    <g clip-path="url(#pdd56b4adf0)">
     <use xlink:href="#m20f1ba8e53" x="235.641975" y="299.474384" style="fill: #800080; stroke: #800080; stroke-width: 1.5"/>
    </g>
   </g>
   <g id="PathCollection_29">
    <defs>
     <path id="m364173edee" d="M 0 -2.236068 
L -0.502029 -0.690983 
L -2.126627 -0.690983 
L -0.812299 0.263932 
L -1.314328 1.809017 
L -0 0.854102 
L 1.314328 1.809017 
L 0.812299 0.263932 
L 2.126627 -0.690983 
L 0.502029 -0.690983 
z
" style="stroke: #800080"/>
    </defs>
    <g clip-path="url(#pdd56b4adf0)">
     <use xlink:href="#m364173edee" x="554.03082" y="384.858185" style="fill: #800080; stroke: #800080"/>
    </g>
   </g>
   <g id="PathCollection_30">
    <defs>
     <path id="mbb820bac86" d="M 0 -2.236068 
L -2.236068 2.236068 
L 2.236068 2.236068 
z
" style="stroke: #800080"/>
    </defs>
    <g clip-path="url(#pdd56b4adf0)">
     <use xlink:href="#mbb820bac86" x="190.289409" y="26.246567" style="fill: #800080; stroke: #800080"/>
    </g>
   </g>
   <g id="PathCollection_31">
    <defs>
     <path id="m424c8df582" d="M -0 2.236068 
L 2.236068 -2.236068 
L -2.236068 -2.236068 
z
" style="stroke: #ffd700"/>
    </defs>
    <g clip-path="url(#pdd56b4adf0)">
     <use xlink:href="#m424c8df582" x="317.229104" y="345.013538" style="fill: #ffd700; stroke: #ffd700"/>
    </g>
   </g>
   <g id="PathCollection_32">
    <defs>
     <path id="mefd667e9a6" d="M 0 2.236068 
C 0.593012 2.236068 1.161816 2.000462 1.581139 1.581139 
C 2.000462 1.161816 2.236068 0.593012 2.236068 0 
C 2.236068 -0.593012 2.000462 -1.161816 1.581139 -1.581139 
C 1.161816 -2.000462 0.593012 -2.236068 0 -2.236068 
C -0.593012 -2.236068 -1.161816 -2.000462 -1.581139 -1.581139 
C -2.000462 -1.161816 -2.236068 -0.593012 -2.236068 0 
C -2.236068 0.593012 -2.000462 1.161816 -1.581139 1.581139 
C -1.161816 2.000462 -0.593012 2.236068 0 2.236068 
z
" style="stroke: #ffd700"/>
    </defs>
    <g clip-path="url(#pdd56b4adf0)">
     <use xlink:href="#mefd667e9a6" x="304.125618" y="299.475511" style="fill: #ffd700; stroke: #ffd700"/>
    </g>
   </g>
   <g id="PathCollection_33">
    <defs>
     <path id="macd4e842b5" d="M -2.236068 0 
L 2.236068 0 
M 0 2.236068 
L 0 -2.236068 
" style="stroke: #ffd700; stroke-width: 1.5"/>
    </defs>
    <g clip-path="url(#pdd56b4adf0)">
     <use xlink:href="#macd4e842b5" x="282.043356" y="299.475424" style="fill: #ffd700; stroke: #ffd700; stroke-width: 1.5"/>
    </g>
   </g>
   <g id="PathCollection_34">
    <defs>
     <path id="m607c58ab58" d="M 0 -2.236068 
L -0.502029 -0.690983 
L -2.126627 -0.690983 
L -0.812299 0.263932 
L -1.314328 1.809017 
L -0 0.854102 
L 1.314328 1.809017 
L 0.812299 0.263932 
L 2.126627 -0.690983 
L 0.502029 -0.690983 
z
" style="stroke: #ffd700"/>
    </defs>
    <g clip-path="url(#pdd56b4adf0)">
     <use xlink:href="#m607c58ab58" x="638.242587" y="384.859225" style="fill: #ffd700; stroke: #ffd700"/>
    </g>
   </g>
   <g id="PathCollection_35">
    <defs>
     <path id="mcc88015002" d="M 0 -2.236068 
L -2.236068 2.236068 
L 2.236068 2.236068 
z
" style="stroke: #ffd700"/>
    </defs>
    <g clip-path="url(#pdd56b4adf0)">
     <use xlink:href="#mcc88015002" x="218.964579" y="26.247346" style="fill: #ffd700; stroke: #ffd700"/>
    </g>
   </g>
   <g id="PathCollection_36">
    <defs>
     <path id="m6d58fb27c2" d="M -0 2.236068 
L 2.236068 -2.236068 
L -2.236068 -2.236068 
z
" style="stroke: #008080"/>
    </defs>
    <g clip-path="url(#pdd56b4adf0)">
     <use xlink:href="#m6d58fb27c2" x="344.556304" y="345.013716" style="fill: #008080; stroke: #008080"/>
    </g>
   </g>
   <g id="PathCollection_37">
    <defs>
     <path id="m5f0574f6ad" d="M 0 2.236068 
C 0.593012 2.236068 1.161816 2.000462 1.581139 1.581139 
C 2.000462 1.161816 2.236068 0.593012 2.236068 0 
C 2.236068 -0.593012 2.000462 -1.161816 1.581139 -1.581139 
C 1.161816 -2.000462 0.593012 -2.236068 0 -2.236068 
C -0.593012 -2.236068 -1.161816 -2.000462 -1.581139 -1.581139 
C -2.000462 -1.161816 -2.236068 -0.593012 -2.236068 0 
C -2.236068 0.593012 -2.000462 1.161816 -1.581139 1.581139 
C -1.161816 2.000462 -0.593012 2.236068 0 2.236068 
z
" style="stroke: #008080"/>
    </defs>
    <g clip-path="url(#pdd56b4adf0)">
     <use xlink:href="#m5f0574f6ad" x="327.197068" y="299.475705" style="fill: #008080; stroke: #008080"/>
    </g>
   </g>
   <g id="PathCollection_38">
    <defs>
     <path id="m6c8f7bf8d8" d="M -2.236068 0 
L 2.236068 0 
M 0 2.236068 
L 0 -2.236068 
" style="stroke: #008080; stroke-width: 1.5"/>
    </defs>
    <g clip-path="url(#pdd56b4adf0)">
     <use xlink:href="#m6c8f7bf8d8" x="306.53037" y="299.475684" style="fill: #008080; stroke: #008080; stroke-width: 1.5"/>
    </g>
   </g>
   <g id="PathCollection_39">
    <defs>
     <path id="mbe1fc5e447" d="M 0 -2.236068 
L -0.502029 -0.690983 
L -2.126627 -0.690983 
L -0.812299 0.263932 
L -1.314328 1.809017 
L -0 0.854102 
L 1.314328 1.809017 
L 0.812299 0.263932 
L 2.126627 -0.690983 
L 0.502029 -0.690983 
z
" style="stroke: #008080"/>
    </defs>
    <g clip-path="url(#pdd56b4adf0)">
     <use xlink:href="#mbe1fc5e447" x="685.823726" y="384.859485" style="fill: #008080; stroke: #008080"/>
    </g>
   </g>
   <g id="PathCollection_40">
    <defs>
     <path id="m31c9cb74cb" d="M 0 -2.236068 
L -2.236068 2.236068 
L 2.236068 2.236068 
z
" style="stroke: #008080"/>
    </defs>
    <g clip-path="url(#pdd56b4adf0)">
     <use xlink:href="#m31c9cb74cb" x="231.559598" y="26.247541" style="fill: #008080; stroke: #008080"/>
    </g>
   </g>
   <g id="matplotlib.axis_1">
    <g id="xtick_1">
     <g id="line2d_1">
      <defs>
       <path id="m9215e83f4f" d="M 0 0 
L 0 3.5 
" style="stroke: #000000; stroke-width: 0.8"/>
      </defs>
      <g>
       <use xlink:href="#m9215e83f4f" x="43.81503" y="402.84327" style="stroke: #000000; stroke-width: 0.8"/>
      </g>
     </g>
     <g id="text_1">
      <!-- 0 -->
      <g transform="translate(40.63378 417.441707) scale(0.1 -0.1)">
       <defs>
        <path id="DejaVuSans-30" d="M 2034 4250 
Q 1547 4250 1301 3770 
Q 1056 3291 1056 2328 
Q 1056 1369 1301 889 
Q 1547 409 2034 409 
Q 2525 409 2770 889 
Q 3016 1369 3016 2328 
Q 3016 3291 2770 3770 
Q 2525 4250 2034 4250 
z
M 2034 4750 
Q 2819 4750 3233 4129 
Q 3647 3509 3647 2328 
Q 3647 1150 3233 529 
Q 2819 -91 2034 -91 
Q 1250 -91 836 529 
Q 422 1150 422 2328 
Q 422 3509 836 4129 
Q 1250 4750 2034 4750 
z
" transform="scale(0.015625)"/>
       </defs>
       <use xlink:href="#DejaVuSans-30"/>
      </g>
     </g>
    </g>
    <g id="xtick_2">
     <g id="line2d_2">
      <g>
       <use xlink:href="#m9215e83f4f" x="127.294353" y="402.84327" style="stroke: #000000; stroke-width: 0.8"/>
      </g>
     </g>
     <g id="text_2">
      <!-- 25 -->
      <g transform="translate(120.931853 417.441707) scale(0.1 -0.1)">
       <defs>
        <path id="DejaVuSans-32" d="M 1228 531 
L 3431 531 
L 3431 0 
L 469 0 
L 469 531 
Q 828 903 1448 1529 
Q 2069 2156 2228 2338 
Q 2531 2678 2651 2914 
Q 2772 3150 2772 3378 
Q 2772 3750 2511 3984 
Q 2250 4219 1831 4219 
Q 1534 4219 1204 4116 
Q 875 4013 500 3803 
L 500 4441 
Q 881 4594 1212 4672 
Q 1544 4750 1819 4750 
Q 2544 4750 2975 4387 
Q 3406 4025 3406 3419 
Q 3406 3131 3298 2873 
Q 3191 2616 2906 2266 
Q 2828 2175 2409 1742 
Q 1991 1309 1228 531 
z
" transform="scale(0.015625)"/>
        <path id="DejaVuSans-35" d="M 691 4666 
L 3169 4666 
L 3169 4134 
L 1269 4134 
L 1269 2991 
Q 1406 3038 1543 3061 
Q 1681 3084 1819 3084 
Q 2600 3084 3056 2656 
Q 3513 2228 3513 1497 
Q 3513 744 3044 326 
Q 2575 -91 1722 -91 
Q 1428 -91 1123 -41 
Q 819 9 494 109 
L 494 744 
Q 775 591 1075 516 
Q 1375 441 1709 441 
Q 2250 441 2565 725 
Q 2881 1009 2881 1497 
Q 2881 1984 2565 2268 
Q 2250 2553 1709 2553 
Q 1456 2553 1204 2497 
Q 953 2441 691 2322 
L 691 4666 
z
" transform="scale(0.015625)"/>
       </defs>
       <use xlink:href="#DejaVuSans-32"/>
       <use xlink:href="#DejaVuSans-35" x="63.623047"/>
      </g>
     </g>
    </g>
    <g id="xtick_3">
     <g id="line2d_3">
      <g>
       <use xlink:href="#m9215e83f4f" x="210.773677" y="402.84327" style="stroke: #000000; stroke-width: 0.8"/>
      </g>
     </g>
     <g id="text_3">
      <!-- 50 -->
      <g transform="translate(204.411177 417.441707) scale(0.1 -0.1)">
       <use xlink:href="#DejaVuSans-35"/>
       <use xlink:href="#DejaVuSans-30" x="63.623047"/>
      </g>
     </g>
    </g>
    <g id="xtick_4">
     <g id="line2d_4">
      <g>
       <use xlink:href="#m9215e83f4f" x="294.253001" y="402.84327" style="stroke: #000000; stroke-width: 0.8"/>
      </g>
     </g>
     <g id="text_4">
      <!-- 75 -->
      <g transform="translate(287.890501 417.441707) scale(0.1 -0.1)">
       <defs>
        <path id="DejaVuSans-37" d="M 525 4666 
L 3525 4666 
L 3525 4397 
L 1831 0 
L 1172 0 
L 2766 4134 
L 525 4134 
L 525 4666 
z
" transform="scale(0.015625)"/>
       </defs>
       <use xlink:href="#DejaVuSans-37"/>
       <use xlink:href="#DejaVuSans-35" x="63.623047"/>
      </g>
     </g>
    </g>
    <g id="xtick_5">
     <g id="line2d_5">
      <g>
       <use xlink:href="#m9215e83f4f" x="377.732325" y="402.84327" style="stroke: #000000; stroke-width: 0.8"/>
      </g>
     </g>
     <g id="text_5">
      <!-- 100 -->
      <g transform="translate(368.188575 417.441707) scale(0.1 -0.1)">
       <defs>
        <path id="DejaVuSans-31" d="M 794 531 
L 1825 531 
L 1825 4091 
L 703 3866 
L 703 4441 
L 1819 4666 
L 2450 4666 
L 2450 531 
L 3481 531 
L 3481 0 
L 794 0 
L 794 531 
z
" transform="scale(0.015625)"/>
       </defs>
       <use xlink:href="#DejaVuSans-31"/>
       <use xlink:href="#DejaVuSans-30" x="63.623047"/>
       <use xlink:href="#DejaVuSans-30" x="127.246094"/>
      </g>
     </g>
    </g>
    <g id="xtick_6">
     <g id="line2d_6">
      <g>
       <use xlink:href="#m9215e83f4f" x="461.211648" y="402.84327" style="stroke: #000000; stroke-width: 0.8"/>
      </g>
     </g>
     <g id="text_6">
      <!-- 125 -->
      <g transform="translate(451.667898 417.441707) scale(0.1 -0.1)">
       <use xlink:href="#DejaVuSans-31"/>
       <use xlink:href="#DejaVuSans-32" x="63.623047"/>
       <use xlink:href="#DejaVuSans-35" x="127.246094"/>
      </g>
     </g>
    </g>
    <g id="xtick_7">
     <g id="line2d_7">
      <g>
       <use xlink:href="#m9215e83f4f" x="544.690972" y="402.84327" style="stroke: #000000; stroke-width: 0.8"/>
      </g>
     </g>
     <g id="text_7">
      <!-- 150 -->
      <g transform="translate(535.147222 417.441707) scale(0.1 -0.1)">
       <use xlink:href="#DejaVuSans-31"/>
       <use xlink:href="#DejaVuSans-35" x="63.623047"/>
       <use xlink:href="#DejaVuSans-30" x="127.246094"/>
      </g>
     </g>
    </g>
    <g id="xtick_8">
     <g id="line2d_8">
      <g>
       <use xlink:href="#m9215e83f4f" x="628.170296" y="402.84327" style="stroke: #000000; stroke-width: 0.8"/>
      </g>
     </g>
     <g id="text_8">
      <!-- 175 -->
      <g transform="translate(618.626546 417.441707) scale(0.1 -0.1)">
       <use xlink:href="#DejaVuSans-31"/>
       <use xlink:href="#DejaVuSans-37" x="63.623047"/>
       <use xlink:href="#DejaVuSans-35" x="127.246094"/>
      </g>
     </g>
    </g>
    <g id="xtick_9">
     <g id="line2d_9">
      <g>
       <use xlink:href="#m9215e83f4f" x="711.649619" y="402.84327" style="stroke: #000000; stroke-width: 0.8"/>
      </g>
     </g>
     <g id="text_9">
      <!-- 200 -->
      <g transform="translate(702.105869 417.441707) scale(0.1 -0.1)">
       <use xlink:href="#DejaVuSans-32"/>
       <use xlink:href="#DejaVuSans-30" x="63.623047"/>
       <use xlink:href="#DejaVuSans-30" x="127.246094"/>
      </g>
     </g>
    </g>
    <g id="text_10">
     <!-- time [ns] -->
     <g transform="translate(356.015664 431.119832) scale(0.1 -0.1)">
      <defs>
       <path id="DejaVuSans-74" d="M 1172 4494 
L 1172 3500 
L 2356 3500 
L 2356 3053 
L 1172 3053 
L 1172 1153 
Q 1172 725 1289 603 
Q 1406 481 1766 481 
L 2356 481 
L 2356 0 
L 1766 0 
Q 1100 0 847 248 
Q 594 497 594 1153 
L 594 3053 
L 172 3053 
L 172 3500 
L 594 3500 
L 594 4494 
L 1172 4494 
z
" transform="scale(0.015625)"/>
       <path id="DejaVuSans-69" d="M 603 3500 
L 1178 3500 
L 1178 0 
L 603 0 
L 603 3500 
z
M 603 4863 
L 1178 4863 
L 1178 4134 
L 603 4134 
L 603 4863 
z
" transform="scale(0.015625)"/>
       <path id="DejaVuSans-6d" d="M 3328 2828 
Q 3544 3216 3844 3400 
Q 4144 3584 4550 3584 
Q 5097 3584 5394 3201 
Q 5691 2819 5691 2113 
L 5691 0 
L 5113 0 
L 5113 2094 
Q 5113 2597 4934 2840 
Q 4756 3084 4391 3084 
Q 3944 3084 3684 2787 
Q 3425 2491 3425 1978 
L 3425 0 
L 2847 0 
L 2847 2094 
Q 2847 2600 2669 2842 
Q 2491 3084 2119 3084 
Q 1678 3084 1418 2786 
Q 1159 2488 1159 1978 
L 1159 0 
L 581 0 
L 581 3500 
L 1159 3500 
L 1159 2956 
Q 1356 3278 1631 3431 
Q 1906 3584 2284 3584 
Q 2666 3584 2933 3390 
Q 3200 3197 3328 2828 
z
" transform="scale(0.015625)"/>
       <path id="DejaVuSans-65" d="M 3597 1894 
L 3597 1613 
L 953 1613 
Q 991 1019 1311 708 
Q 1631 397 2203 397 
Q 2534 397 2845 478 
Q 3156 559 3463 722 
L 3463 178 
Q 3153 47 2828 -22 
Q 2503 -91 2169 -91 
Q 1331 -91 842 396 
Q 353 884 353 1716 
Q 353 2575 817 3079 
Q 1281 3584 2069 3584 
Q 2775 3584 3186 3129 
Q 3597 2675 3597 1894 
z
M 3022 2063 
Q 3016 2534 2758 2815 
Q 2500 3097 2075 3097 
Q 1594 3097 1305 2825 
Q 1016 2553 972 2059 
L 3022 2063 
z
" transform="scale(0.015625)"/>
       <path id="DejaVuSans-20" transform="scale(0.015625)"/>
       <path id="DejaVuSans-5b" d="M 550 4863 
L 1875 4863 
L 1875 4416 
L 1125 4416 
L 1125 -397 
L 1875 -397 
L 1875 -844 
L 550 -844 
L 550 4863 
z
" transform="scale(0.015625)"/>
       <path id="DejaVuSans-6e" d="M 3513 2113 
L 3513 0 
L 2938 0 
L 2938 2094 
Q 2938 2591 2744 2837 
Q 2550 3084 2163 3084 
Q 1697 3084 1428 2787 
Q 1159 2491 1159 1978 
L 1159 0 
L 581 0 
L 581 3500 
L 1159 3500 
L 1159 2956 
Q 1366 3272 1645 3428 
Q 1925 3584 2291 3584 
Q 2894 3584 3203 3211 
Q 3513 2838 3513 2113 
z
" transform="scale(0.015625)"/>
       <path id="DejaVuSans-73" d="M 2834 3397 
L 2834 2853 
Q 2591 2978 2328 3040 
Q 2066 3103 1784 3103 
Q 1356 3103 1142 2972 
Q 928 2841 928 2578 
Q 928 2378 1081 2264 
Q 1234 2150 1697 2047 
L 1894 2003 
Q 2506 1872 2764 1633 
Q 3022 1394 3022 966 
Q 3022 478 2636 193 
Q 2250 -91 1575 -91 
Q 1294 -91 989 -36 
Q 684 19 347 128 
L 347 722 
Q 666 556 975 473 
Q 1284 391 1588 391 
Q 1994 391 2212 530 
Q 2431 669 2431 922 
Q 2431 1156 2273 1281 
Q 2116 1406 1581 1522 
L 1381 1569 
Q 847 1681 609 1914 
Q 372 2147 372 2553 
Q 372 3047 722 3315 
Q 1072 3584 1716 3584 
Q 2034 3584 2315 3537 
Q 2597 3491 2834 3397 
z
" transform="scale(0.015625)"/>
       <path id="DejaVuSans-5d" d="M 1947 4863 
L 1947 -844 
L 622 -844 
L 622 -397 
L 1369 -397 
L 1369 4416 
L 622 4416 
L 622 4863 
L 1947 4863 
z
" transform="scale(0.015625)"/>
      </defs>
      <use xlink:href="#DejaVuSans-74"/>
      <use xlink:href="#DejaVuSans-69" x="39.208984"/>
      <use xlink:href="#DejaVuSans-6d" x="66.992188"/>
      <use xlink:href="#DejaVuSans-65" x="164.404297"/>
      <use xlink:href="#DejaVuSans-20" x="225.927734"/>
      <use xlink:href="#DejaVuSans-5b" x="257.714844"/>
      <use xlink:href="#DejaVuSans-6e" x="296.728516"/>
      <use xlink:href="#DejaVuSans-73" x="360.107422"/>
      <use xlink:href="#DejaVuSans-5d" x="412.207031"/>
     </g>
    </g>
   </g>
   <g id="matplotlib.axis_2">
    <g id="ytick_1">
     <g id="line2d_10">
      <defs>
       <path id="m8fa1fdd39a" d="M 0 0 
L -3.5 0 
" style="stroke: #000000; stroke-width: 0.8"/>
      </defs>
      <g>
       <use xlink:href="#m8fa1fdd39a" x="40.603125" y="390.551825" style="stroke: #000000; stroke-width: 0.8"/>
      </g>
     </g>
     <g id="text_11">
      <!-- 0 -->
      <g transform="translate(27.240625 394.351044) scale(0.1 -0.1)">
       <use xlink:href="#DejaVuSans-30"/>
      </g>
     </g>
    </g>
    <g id="ytick_2">
     <g id="line2d_11">
      <g>
       <use xlink:href="#m8fa1fdd39a" x="40.603125" y="317.690981" style="stroke: #000000; stroke-width: 0.8"/>
      </g>
     </g>
     <g id="text_12">
      <!-- 5 -->
      <g transform="translate(27.240625 321.4902) scale(0.1 -0.1)">
       <use xlink:href="#DejaVuSans-35"/>
      </g>
     </g>
    </g>
    <g id="ytick_3">
     <g id="line2d_12">
      <g>
       <use xlink:href="#m8fa1fdd39a" x="40.603125" y="244.830138" style="stroke: #000000; stroke-width: 0.8"/>
      </g>
     </g>
     <g id="text_13">
      <!-- 10 -->
      <g transform="translate(20.878125 248.629356) scale(0.1 -0.1)">
       <use xlink:href="#DejaVuSans-31"/>
       <use xlink:href="#DejaVuSans-30" x="63.623047"/>
      </g>
     </g>
    </g>
    <g id="ytick_4">
     <g id="line2d_13">
      <g>
       <use xlink:href="#m8fa1fdd39a" x="40.603125" y="171.969294" style="stroke: #000000; stroke-width: 0.8"/>
      </g>
     </g>
     <g id="text_14">
      <!-- 15 -->
      <g transform="translate(20.878125 175.768513) scale(0.1 -0.1)">
       <use xlink:href="#DejaVuSans-31"/>
       <use xlink:href="#DejaVuSans-35" x="63.623047"/>
      </g>
     </g>
    </g>
    <g id="ytick_5">
     <g id="line2d_14">
      <g>
       <use xlink:href="#m8fa1fdd39a" x="40.603125" y="99.10845" style="stroke: #000000; stroke-width: 0.8"/>
      </g>
     </g>
     <g id="text_15">
      <!-- 20 -->
      <g transform="translate(20.878125 102.907669) scale(0.1 -0.1)">
       <use xlink:href="#DejaVuSans-32"/>
       <use xlink:href="#DejaVuSans-30" x="63.623047"/>
      </g>
     </g>
    </g>
    <g id="ytick_6">
     <g id="line2d_15">
      <g>
       <use xlink:href="#m8fa1fdd39a" x="40.603125" y="26.247606" style="stroke: #000000; stroke-width: 0.8"/>
      </g>
     </g>
     <g id="text_16">
      <!-- 25 -->
      <g transform="translate(20.878125 30.046825) scale(0.1 -0.1)">
       <use xlink:href="#DejaVuSans-32"/>
       <use xlink:href="#DejaVuSans-35" x="63.623047"/>
      </g>
     </g>
    </g>
    <g id="text_17">
     <!-- memory cost [%] -->
     <g transform="translate(14.798438 248.116947) rotate(-90) scale(0.1 -0.1)">
      <defs>
       <path id="DejaVuSans-6f" d="M 1959 3097 
Q 1497 3097 1228 2736 
Q 959 2375 959 1747 
Q 959 1119 1226 758 
Q 1494 397 1959 397 
Q 2419 397 2687 759 
Q 2956 1122 2956 1747 
Q 2956 2369 2687 2733 
Q 2419 3097 1959 3097 
z
M 1959 3584 
Q 2709 3584 3137 3096 
Q 3566 2609 3566 1747 
Q 3566 888 3137 398 
Q 2709 -91 1959 -91 
Q 1206 -91 779 398 
Q 353 888 353 1747 
Q 353 2609 779 3096 
Q 1206 3584 1959 3584 
z
" transform="scale(0.015625)"/>
       <path id="DejaVuSans-72" d="M 2631 2963 
Q 2534 3019 2420 3045 
Q 2306 3072 2169 3072 
Q 1681 3072 1420 2755 
Q 1159 2438 1159 1844 
L 1159 0 
L 581 0 
L 581 3500 
L 1159 3500 
L 1159 2956 
Q 1341 3275 1631 3429 
Q 1922 3584 2338 3584 
Q 2397 3584 2469 3576 
Q 2541 3569 2628 3553 
L 2631 2963 
z
" transform="scale(0.015625)"/>
       <path id="DejaVuSans-79" d="M 2059 -325 
Q 1816 -950 1584 -1140 
Q 1353 -1331 966 -1331 
L 506 -1331 
L 506 -850 
L 844 -850 
Q 1081 -850 1212 -737 
Q 1344 -625 1503 -206 
L 1606 56 
L 191 3500 
L 800 3500 
L 1894 763 
L 2988 3500 
L 3597 3500 
L 2059 -325 
z
" transform="scale(0.015625)"/>
       <path id="DejaVuSans-63" d="M 3122 3366 
L 3122 2828 
Q 2878 2963 2633 3030 
Q 2388 3097 2138 3097 
Q 1578 3097 1268 2742 
Q 959 2388 959 1747 
Q 959 1106 1268 751 
Q 1578 397 2138 397 
Q 2388 397 2633 464 
Q 2878 531 3122 666 
L 3122 134 
Q 2881 22 2623 -34 
Q 2366 -91 2075 -91 
Q 1284 -91 818 406 
Q 353 903 353 1747 
Q 353 2603 823 3093 
Q 1294 3584 2113 3584 
Q 2378 3584 2631 3529 
Q 2884 3475 3122 3366 
z
" transform="scale(0.015625)"/>
       <path id="DejaVuSans-25" d="M 4653 2053 
Q 4381 2053 4226 1822 
Q 4072 1591 4072 1178 
Q 4072 772 4226 539 
Q 4381 306 4653 306 
Q 4919 306 5073 539 
Q 5228 772 5228 1178 
Q 5228 1588 5073 1820 
Q 4919 2053 4653 2053 
z
M 4653 2450 
Q 5147 2450 5437 2106 
Q 5728 1763 5728 1178 
Q 5728 594 5436 251 
Q 5144 -91 4653 -91 
Q 4153 -91 3862 251 
Q 3572 594 3572 1178 
Q 3572 1766 3864 2108 
Q 4156 2450 4653 2450 
z
M 1428 4353 
Q 1159 4353 1004 4120 
Q 850 3888 850 3481 
Q 850 3069 1003 2837 
Q 1156 2606 1428 2606 
Q 1700 2606 1854 2837 
Q 2009 3069 2009 3481 
Q 2009 3884 1853 4118 
Q 1697 4353 1428 4353 
z
M 4250 4750 
L 4750 4750 
L 1831 -91 
L 1331 -91 
L 4250 4750 
z
M 1428 4750 
Q 1922 4750 2215 4408 
Q 2509 4066 2509 3481 
Q 2509 2891 2217 2550 
Q 1925 2209 1428 2209 
Q 931 2209 642 2551 
Q 353 2894 353 3481 
Q 353 4063 643 4406 
Q 934 4750 1428 4750 
z
" transform="scale(0.015625)"/>
      </defs>
      <use xlink:href="#DejaVuSans-6d"/>
      <use xlink:href="#DejaVuSans-65" x="97.412109"/>
      <use xlink:href="#DejaVuSans-6d" x="158.935547"/>
      <use xlink:href="#DejaVuSans-6f" x="256.347656"/>
      <use xlink:href="#DejaVuSans-72" x="317.529297"/>
      <use xlink:href="#DejaVuSans-79" x="358.642578"/>
      <use xlink:href="#DejaVuSans-20" x="417.822266"/>
      <use xlink:href="#DejaVuSans-63" x="449.609375"/>
      <use xlink:href="#DejaVuSans-6f" x="504.589844"/>
      <use xlink:href="#DejaVuSans-73" x="565.771484"/>
      <use xlink:href="#DejaVuSans-74" x="617.871094"/>
      <use xlink:href="#DejaVuSans-20" x="657.080078"/>
      <use xlink:href="#DejaVuSans-5b" x="688.867188"/>
      <use xlink:href="#DejaVuSans-25" x="727.880859"/>
      <use xlink:href="#DejaVuSans-5d" x="822.900391"/>
     </g>
    </g>
   </g>
   <g id="line2d_16">
    <path d="M 71.327916 25.183785 
L 91.762384 344.038281 
L 245.903584 383.439301 
" clip-path="url(#pdd56b4adf0)" style="fill: none; stroke: #0000ff; stroke-linecap: square"/>
   </g>
   <g id="line2d_17">
    <path d="M 72.745042 25.981651 
L 92.995987 344.769907 
L 248.350099 384.504504 
" clip-path="url(#pdd56b4adf0)" style="fill: none; stroke: #008000; stroke-linecap: square"/>
   </g>
   <g id="line2d_18">
    <path d="M 77.557364 26.181117 
L 96.320668 344.952824 
L 254.502597 384.770805 
" clip-path="url(#pdd56b4adf0)" style="fill: none; stroke: #ff0000; stroke-linecap: square"/>
   </g>
   <g id="line2d_19">
    <path d="M 85.430046 26.230984 
L 109.429982 344.998554 
L 277.892321 384.83738 
" clip-path="url(#pdd56b4adf0)" style="fill: none; stroke: #00bfbf; stroke-linecap: square"/>
   </g>
   <g id="line2d_20">
    <path d="M 104.710145 26.243451 
L 125.210518 299.470223 
L 127.284662 345.009987 
L 310.730494 384.854024 
" clip-path="url(#pdd56b4adf0)" style="fill: none; stroke: #bf00bf; stroke-linecap: square"/>
   </g>
   <g id="line2d_21">
    <path d="M 190.289409 26.246567 
L 235.641975 299.474384 
L 253.819541 299.474731 
L 259.493038 345.012845 
L 554.03082 384.858185 
" clip-path="url(#pdd56b4adf0)" style="fill: none; stroke: #800080; stroke-linecap: square"/>
   </g>
   <g id="line2d_22">
    <path d="M 218.964579 26.247346 
L 282.043356 299.475424 
L 304.125618 299.475511 
L 317.229104 345.013538 
L 638.242587 384.859225 
" clip-path="url(#pdd56b4adf0)" style="fill: none; stroke: #ffd700; stroke-linecap: square"/>
   </g>
   <g id="line2d_23">
    <path d="M 231.559598 26.247541 
L 306.53037 299.475684 
L 327.197068 299.475705 
L 344.556304 345.013716 
L 685.823726 384.859485 
" clip-path="url(#pdd56b4adf0)" style="fill: none; stroke: #008080; stroke-linecap: square"/>
   </g>
   <g id="patch_3">
    <path d="M 40.603125 402.84327 
L 40.603125 7.2 
" style="fill: none; stroke: #000000; stroke-width: 0.8; stroke-linejoin: miter; stroke-linecap: square"/>
   </g>
   <g id="patch_4">
    <path d="M 716.548516 402.84327 
L 716.548516 7.2 
" style="fill: none; stroke: #000000; stroke-width: 0.8; stroke-linejoin: miter; stroke-linecap: square"/>
   </g>
   <g id="patch_5">
    <path d="M 40.603125 402.84327 
L 716.548516 402.84327 
" style="fill: none; stroke: #000000; stroke-width: 0.8; stroke-linejoin: miter; stroke-linecap: square"/>
   </g>
   <g id="patch_6">
    <path d="M 40.603125 7.2 
L 716.548516 7.2 
" style="fill: none; stroke: #000000; stroke-width: 0.8; stroke-linejoin: miter; stroke-linecap: square"/>
   </g>
  </g>
  <g id="legend_1">
   <g id="patch_7">
    <path d="M 129.681791 507.514135 
L 602.717729 507.514135 
Q 604.717729 507.514135 604.717729 505.514135 
L 604.717729 462.47976 
Q 604.717729 460.47976 602.717729 460.47976 
L 129.681791 460.47976 
Q 127.681791 460.47976 127.681791 462.47976 
L 127.681791 505.514135 
Q 127.681791 507.514135 129.681791 507.514135 
z
" style="fill: #4d4d4d; opacity: 0.5; stroke: #4d4d4d; stroke-linejoin: miter"/>
   </g>
   <g id="patch_8">
    <path d="M 127.681791 505.514135 
L 600.717729 505.514135 
Q 602.717729 505.514135 602.717729 503.514135 
L 602.717729 460.47976 
Q 602.717729 458.47976 600.717729 458.47976 
L 127.681791 458.47976 
Q 125.681791 458.47976 125.681791 460.47976 
L 125.681791 503.514135 
Q 125.681791 505.514135 127.681791 505.514135 
z
" style="fill: #ffffff; stroke: #cccccc; stroke-linejoin: miter"/>
   </g>
   <g id="patch_9">
    <path d="M 129.681791 470.078197 
L 149.681791 470.078197 
L 149.681791 463.078197 
L 129.681791 463.078197 
z
" style="fill: #0000ff; stroke: #0000ff; stroke-linejoin: miter"/>
   </g>
   <g id="text_18">
    <!-- size=2^20 -->
    <g transform="translate(157.681791 470.078197) scale(0.1 -0.1)">
     <defs>
      <path id="DejaVuSans-7a" d="M 353 3500 
L 3084 3500 
L 3084 2975 
L 922 459 
L 3084 459 
L 3084 0 
L 275 0 
L 275 525 
L 2438 3041 
L 353 3041 
L 353 3500 
z
" transform="scale(0.015625)"/>
      <path id="DejaVuSans-3d" d="M 678 2906 
L 4684 2906 
L 4684 2381 
L 678 2381 
L 678 2906 
z
M 678 1631 
L 4684 1631 
L 4684 1100 
L 678 1100 
L 678 1631 
z
" transform="scale(0.015625)"/>
      <path id="DejaVuSans-5e" d="M 2988 4666 
L 4684 2925 
L 4056 2925 
L 2681 4159 
L 1306 2925 
L 678 2925 
L 2375 4666 
L 2988 4666 
z
" transform="scale(0.015625)"/>
     </defs>
     <use xlink:href="#DejaVuSans-73"/>
     <use xlink:href="#DejaVuSans-69" x="52.099609"/>
     <use xlink:href="#DejaVuSans-7a" x="79.882812"/>
     <use xlink:href="#DejaVuSans-65" x="132.373047"/>
     <use xlink:href="#DejaVuSans-3d" x="193.896484"/>
     <use xlink:href="#DejaVuSans-32" x="277.685547"/>
     <use xlink:href="#DejaVuSans-5e" x="341.308594"/>
     <use xlink:href="#DejaVuSans-32" x="425.097656"/>
     <use xlink:href="#DejaVuSans-30" x="488.720703"/>
    </g>
   </g>
   <g id="patch_10">
    <path d="M 129.681791 484.756322 
L 149.681791 484.756322 
L 149.681791 477.756322 
L 129.681791 477.756322 
z
" style="fill: #008000; stroke: #008000; stroke-linejoin: miter"/>
   </g>
   <g id="text_19">
    <!-- size=2^22 -->
    <g transform="translate(157.681791 484.756322) scale(0.1 -0.1)">
     <use xlink:href="#DejaVuSans-73"/>
     <use xlink:href="#DejaVuSans-69" x="52.099609"/>
     <use xlink:href="#DejaVuSans-7a" x="79.882812"/>
     <use xlink:href="#DejaVuSans-65" x="132.373047"/>
     <use xlink:href="#DejaVuSans-3d" x="193.896484"/>
     <use xlink:href="#DejaVuSans-32" x="277.685547"/>
     <use xlink:href="#DejaVuSans-5e" x="341.308594"/>
     <use xlink:href="#DejaVuSans-32" x="425.097656"/>
     <use xlink:href="#DejaVuSans-32" x="488.720703"/>
    </g>
   </g>
   <g id="patch_11">
    <path d="M 129.681791 499.434447 
L 149.681791 499.434447 
L 149.681791 492.434447 
L 129.681791 492.434447 
z
" style="fill: #ff0000; stroke: #ff0000; stroke-linejoin: miter"/>
   </g>
   <g id="text_20">
    <!-- size=2^24 -->
    <g transform="translate(157.681791 499.434447) scale(0.1 -0.1)">
     <defs>
      <path id="DejaVuSans-34" d="M 2419 4116 
L 825 1625 
L 2419 1625 
L 2419 4116 
z
M 2253 4666 
L 3047 4666 
L 3047 1625 
L 3713 1625 
L 3713 1100 
L 3047 1100 
L 3047 0 
L 2419 0 
L 2419 1100 
L 313 1100 
L 313 1709 
L 2253 4666 
z
" transform="scale(0.015625)"/>
     </defs>
     <use xlink:href="#DejaVuSans-73"/>
     <use xlink:href="#DejaVuSans-69" x="52.099609"/>
     <use xlink:href="#DejaVuSans-7a" x="79.882812"/>
     <use xlink:href="#DejaVuSans-65" x="132.373047"/>
     <use xlink:href="#DejaVuSans-3d" x="193.896484"/>
     <use xlink:href="#DejaVuSans-32" x="277.685547"/>
     <use xlink:href="#DejaVuSans-5e" x="341.308594"/>
     <use xlink:href="#DejaVuSans-32" x="425.097656"/>
     <use xlink:href="#DejaVuSans-34" x="488.720703"/>
    </g>
   </g>
   <g id="patch_12">
    <path d="M 232.917729 470.078197 
L 252.917729 470.078197 
L 252.917729 463.078197 
L 232.917729 463.078197 
z
" style="fill: #00bfbf; stroke: #00bfbf; stroke-linejoin: miter"/>
   </g>
   <g id="text_21">
    <!-- size=2^26 -->
    <g transform="translate(260.917729 470.078197) scale(0.1 -0.1)">
     <defs>
      <path id="DejaVuSans-36" d="M 2113 2584 
Q 1688 2584 1439 2293 
Q 1191 2003 1191 1497 
Q 1191 994 1439 701 
Q 1688 409 2113 409 
Q 2538 409 2786 701 
Q 3034 994 3034 1497 
Q 3034 2003 2786 2293 
Q 2538 2584 2113 2584 
z
M 3366 4563 
L 3366 3988 
Q 3128 4100 2886 4159 
Q 2644 4219 2406 4219 
Q 1781 4219 1451 3797 
Q 1122 3375 1075 2522 
Q 1259 2794 1537 2939 
Q 1816 3084 2150 3084 
Q 2853 3084 3261 2657 
Q 3669 2231 3669 1497 
Q 3669 778 3244 343 
Q 2819 -91 2113 -91 
Q 1303 -91 875 529 
Q 447 1150 447 2328 
Q 447 3434 972 4092 
Q 1497 4750 2381 4750 
Q 2619 4750 2861 4703 
Q 3103 4656 3366 4563 
z
" transform="scale(0.015625)"/>
     </defs>
     <use xlink:href="#DejaVuSans-73"/>
     <use xlink:href="#DejaVuSans-69" x="52.099609"/>
     <use xlink:href="#DejaVuSans-7a" x="79.882812"/>
     <use xlink:href="#DejaVuSans-65" x="132.373047"/>
     <use xlink:href="#DejaVuSans-3d" x="193.896484"/>
     <use xlink:href="#DejaVuSans-32" x="277.685547"/>
     <use xlink:href="#DejaVuSans-5e" x="341.308594"/>
     <use xlink:href="#DejaVuSans-32" x="425.097656"/>
     <use xlink:href="#DejaVuSans-36" x="488.720703"/>
    </g>
   </g>
   <g id="patch_13">
    <path d="M 232.917729 484.756322 
L 252.917729 484.756322 
L 252.917729 477.756322 
L 232.917729 477.756322 
z
" style="fill: #bf00bf; stroke: #bf00bf; stroke-linejoin: miter"/>
   </g>
   <g id="text_22">
    <!-- size=2^28 -->
    <g transform="translate(260.917729 484.756322) scale(0.1 -0.1)">
     <defs>
      <path id="DejaVuSans-38" d="M 2034 2216 
Q 1584 2216 1326 1975 
Q 1069 1734 1069 1313 
Q 1069 891 1326 650 
Q 1584 409 2034 409 
Q 2484 409 2743 651 
Q 3003 894 3003 1313 
Q 3003 1734 2745 1975 
Q 2488 2216 2034 2216 
z
M 1403 2484 
Q 997 2584 770 2862 
Q 544 3141 544 3541 
Q 544 4100 942 4425 
Q 1341 4750 2034 4750 
Q 2731 4750 3128 4425 
Q 3525 4100 3525 3541 
Q 3525 3141 3298 2862 
Q 3072 2584 2669 2484 
Q 3125 2378 3379 2068 
Q 3634 1759 3634 1313 
Q 3634 634 3220 271 
Q 2806 -91 2034 -91 
Q 1263 -91 848 271 
Q 434 634 434 1313 
Q 434 1759 690 2068 
Q 947 2378 1403 2484 
z
M 1172 3481 
Q 1172 3119 1398 2916 
Q 1625 2713 2034 2713 
Q 2441 2713 2670 2916 
Q 2900 3119 2900 3481 
Q 2900 3844 2670 4047 
Q 2441 4250 2034 4250 
Q 1625 4250 1398 4047 
Q 1172 3844 1172 3481 
z
" transform="scale(0.015625)"/>
     </defs>
     <use xlink:href="#DejaVuSans-73"/>
     <use xlink:href="#DejaVuSans-69" x="52.099609"/>
     <use xlink:href="#DejaVuSans-7a" x="79.882812"/>
     <use xlink:href="#DejaVuSans-65" x="132.373047"/>
     <use xlink:href="#DejaVuSans-3d" x="193.896484"/>
     <use xlink:href="#DejaVuSans-32" x="277.685547"/>
     <use xlink:href="#DejaVuSans-5e" x="341.308594"/>
     <use xlink:href="#DejaVuSans-32" x="425.097656"/>
     <use xlink:href="#DejaVuSans-38" x="488.720703"/>
    </g>
   </g>
   <g id="patch_14">
    <path d="M 232.917729 499.434447 
L 252.917729 499.434447 
L 252.917729 492.434447 
L 232.917729 492.434447 
z
" style="fill: #800080; stroke: #800080; stroke-linejoin: miter"/>
   </g>
   <g id="text_23">
    <!-- size=2^30 -->
    <g transform="translate(260.917729 499.434447) scale(0.1 -0.1)">
     <defs>
      <path id="DejaVuSans-33" d="M 2597 2516 
Q 3050 2419 3304 2112 
Q 3559 1806 3559 1356 
Q 3559 666 3084 287 
Q 2609 -91 1734 -91 
Q 1441 -91 1130 -33 
Q 819 25 488 141 
L 488 750 
Q 750 597 1062 519 
Q 1375 441 1716 441 
Q 2309 441 2620 675 
Q 2931 909 2931 1356 
Q 2931 1769 2642 2001 
Q 2353 2234 1838 2234 
L 1294 2234 
L 1294 2753 
L 1863 2753 
Q 2328 2753 2575 2939 
Q 2822 3125 2822 3475 
Q 2822 3834 2567 4026 
Q 2313 4219 1838 4219 
Q 1578 4219 1281 4162 
Q 984 4106 628 3988 
L 628 4550 
Q 988 4650 1302 4700 
Q 1616 4750 1894 4750 
Q 2613 4750 3031 4423 
Q 3450 4097 3450 3541 
Q 3450 3153 3228 2886 
Q 3006 2619 2597 2516 
z
" transform="scale(0.015625)"/>
     </defs>
     <use xlink:href="#DejaVuSans-73"/>
     <use xlink:href="#DejaVuSans-69" x="52.099609"/>
     <use xlink:href="#DejaVuSans-7a" x="79.882812"/>
     <use xlink:href="#DejaVuSans-65" x="132.373047"/>
     <use xlink:href="#DejaVuSans-3d" x="193.896484"/>
     <use xlink:href="#DejaVuSans-32" x="277.685547"/>
     <use xlink:href="#DejaVuSans-5e" x="341.308594"/>
     <use xlink:href="#DejaVuSans-33" x="425.097656"/>
     <use xlink:href="#DejaVuSans-30" x="488.720703"/>
    </g>
   </g>
   <g id="patch_15">
    <path d="M 336.153666 470.078197 
L 356.153666 470.078197 
L 356.153666 463.078197 
L 336.153666 463.078197 
z
" style="fill: #ffd700; stroke: #ffd700; stroke-linejoin: miter"/>
   </g>
   <g id="text_24">
    <!-- size=2^32 -->
    <g transform="translate(364.153666 470.078197) scale(0.1 -0.1)">
     <use xlink:href="#DejaVuSans-73"/>
     <use xlink:href="#DejaVuSans-69" x="52.099609"/>
     <use xlink:href="#DejaVuSans-7a" x="79.882812"/>
     <use xlink:href="#DejaVuSans-65" x="132.373047"/>
     <use xlink:href="#DejaVuSans-3d" x="193.896484"/>
     <use xlink:href="#DejaVuSans-32" x="277.685547"/>
     <use xlink:href="#DejaVuSans-5e" x="341.308594"/>
     <use xlink:href="#DejaVuSans-33" x="425.097656"/>
     <use xlink:href="#DejaVuSans-32" x="488.720703"/>
    </g>
   </g>
   <g id="patch_16">
    <path d="M 336.153666 484.756322 
L 356.153666 484.756322 
L 356.153666 477.756322 
L 336.153666 477.756322 
z
" style="fill: #008080; stroke: #008080; stroke-linejoin: miter"/>
   </g>
   <g id="text_25">
    <!-- size=2^34 -->
    <g transform="translate(364.153666 484.756322) scale(0.1 -0.1)">
     <use xlink:href="#DejaVuSans-73"/>
     <use xlink:href="#DejaVuSans-69" x="52.099609"/>
     <use xlink:href="#DejaVuSans-7a" x="79.882812"/>
     <use xlink:href="#DejaVuSans-65" x="132.373047"/>
     <use xlink:href="#DejaVuSans-3d" x="193.896484"/>
     <use xlink:href="#DejaVuSans-32" x="277.685547"/>
     <use xlink:href="#DejaVuSans-5e" x="341.308594"/>
     <use xlink:href="#DejaVuSans-33" x="425.097656"/>
     <use xlink:href="#DejaVuSans-34" x="488.720703"/>
    </g>
   </g>
   <g id="line2d_24">
    <path d="M 336.153666 495.934447 
L 346.153666 495.934447 
L 356.153666 495.934447 
" style="fill: none; stroke: #000000; stroke-width: 1.5; stroke-linecap: square"/>
    <defs>
     <path id="mb87c7908a3" d="M -0 2.5 
L 2.5 -2.5 
L -2.5 -2.5 
z
" style="stroke: #000000; stroke-linejoin: miter"/>
    </defs>
    <g>
     <use xlink:href="#mb87c7908a3" x="346.153666" y="495.934447" style="stroke: #000000; stroke-linejoin: miter"/>
    </g>
   </g>
   <g id="text_26">
    <!-- Rank101111 -->
    <g transform="translate(364.153666 499.434447) scale(0.1 -0.1)">
     <defs>
      <path id="DejaVuSans-52" d="M 2841 2188 
Q 3044 2119 3236 1894 
Q 3428 1669 3622 1275 
L 4263 0 
L 3584 0 
L 2988 1197 
Q 2756 1666 2539 1819 
Q 2322 1972 1947 1972 
L 1259 1972 
L 1259 0 
L 628 0 
L 628 4666 
L 2053 4666 
Q 2853 4666 3247 4331 
Q 3641 3997 3641 3322 
Q 3641 2881 3436 2590 
Q 3231 2300 2841 2188 
z
M 1259 4147 
L 1259 2491 
L 2053 2491 
Q 2509 2491 2742 2702 
Q 2975 2913 2975 3322 
Q 2975 3731 2742 3939 
Q 2509 4147 2053 4147 
L 1259 4147 
z
" transform="scale(0.015625)"/>
      <path id="DejaVuSans-61" d="M 2194 1759 
Q 1497 1759 1228 1600 
Q 959 1441 959 1056 
Q 959 750 1161 570 
Q 1363 391 1709 391 
Q 2188 391 2477 730 
Q 2766 1069 2766 1631 
L 2766 1759 
L 2194 1759 
z
M 3341 1997 
L 3341 0 
L 2766 0 
L 2766 531 
Q 2569 213 2275 61 
Q 1981 -91 1556 -91 
Q 1019 -91 701 211 
Q 384 513 384 1019 
Q 384 1609 779 1909 
Q 1175 2209 1959 2209 
L 2766 2209 
L 2766 2266 
Q 2766 2663 2505 2880 
Q 2244 3097 1772 3097 
Q 1472 3097 1187 3025 
Q 903 2953 641 2809 
L 641 3341 
Q 956 3463 1253 3523 
Q 1550 3584 1831 3584 
Q 2591 3584 2966 3190 
Q 3341 2797 3341 1997 
z
" transform="scale(0.015625)"/>
      <path id="DejaVuSans-6b" d="M 581 4863 
L 1159 4863 
L 1159 1991 
L 2875 3500 
L 3609 3500 
L 1753 1863 
L 3688 0 
L 2938 0 
L 1159 1709 
L 1159 0 
L 581 0 
L 581 4863 
z
" transform="scale(0.015625)"/>
     </defs>
     <use xlink:href="#DejaVuSans-52"/>
     <use xlink:href="#DejaVuSans-61" x="67.232422"/>
     <use xlink:href="#DejaVuSans-6e" x="128.511719"/>
     <use xlink:href="#DejaVuSans-6b" x="191.890625"/>
     <use xlink:href="#DejaVuSans-31" x="249.800781"/>
     <use xlink:href="#DejaVuSans-30" x="313.423828"/>
     <use xlink:href="#DejaVuSans-31" x="377.046875"/>
     <use xlink:href="#DejaVuSans-31" x="440.669922"/>
     <use xlink:href="#DejaVuSans-31" x="504.292969"/>
     <use xlink:href="#DejaVuSans-31" x="567.916016"/>
    </g>
   </g>
   <g id="line2d_25">
    <path d="M 447.308354 466.578197 
L 457.308354 466.578197 
L 467.308354 466.578197 
" style="fill: none; stroke: #000000; stroke-width: 1.5; stroke-linecap: square"/>
    <defs>
     <path id="m396d30c3fd" d="M 0 2.5 
C 0.663008 2.5 1.29895 2.236584 1.767767 1.767767 
C 2.236584 1.29895 2.5 0.663008 2.5 0 
C 2.5 -0.663008 2.236584 -1.29895 1.767767 -1.767767 
C 1.29895 -2.236584 0.663008 -2.5 0 -2.5 
C -0.663008 -2.5 -1.29895 -2.236584 -1.767767 -1.767767 
C -2.236584 -1.29895 -2.5 -0.663008 -2.5 0 
C -2.5 0.663008 -2.236584 1.29895 -1.767767 1.767767 
C -1.29895 2.236584 -0.663008 2.5 0 2.5 
z
" style="stroke: #000000"/>
    </defs>
    <g>
     <use xlink:href="#m396d30c3fd" x="457.308354" y="466.578197" style="stroke: #000000"/>
    </g>
   </g>
   <g id="text_27">
    <!-- Rank11 -->
    <g transform="translate(475.308354 470.078197) scale(0.1 -0.1)">
     <use xlink:href="#DejaVuSans-52"/>
     <use xlink:href="#DejaVuSans-61" x="67.232422"/>
     <use xlink:href="#DejaVuSans-6e" x="128.511719"/>
     <use xlink:href="#DejaVuSans-6b" x="191.890625"/>
     <use xlink:href="#DejaVuSans-31" x="249.800781"/>
     <use xlink:href="#DejaVuSans-31" x="313.423828"/>
    </g>
   </g>
   <g id="line2d_26">
    <path d="M 447.308354 481.256322 
L 457.308354 481.256322 
L 467.308354 481.256322 
" style="fill: none; stroke: #000000; stroke-width: 1.5; stroke-linecap: square"/>
    <defs>
     <path id="mf0695572f4" d="M -2.5 0 
L 2.5 0 
M 0 2.5 
L 0 -2.5 
" style="stroke: #000000"/>
    </defs>
    <g>
     <use xlink:href="#mf0695572f4" x="457.308354" y="481.256322" style="stroke: #000000"/>
    </g>
   </g>
   <g id="text_28">
    <!-- Rank12 -->
    <g transform="translate(475.308354 484.756322) scale(0.1 -0.1)">
     <use xlink:href="#DejaVuSans-52"/>
     <use xlink:href="#DejaVuSans-61" x="67.232422"/>
     <use xlink:href="#DejaVuSans-6e" x="128.511719"/>
     <use xlink:href="#DejaVuSans-6b" x="191.890625"/>
     <use xlink:href="#DejaVuSans-31" x="249.800781"/>
     <use xlink:href="#DejaVuSans-32" x="313.423828"/>
    </g>
   </g>
   <g id="line2d_27">
    <path d="M 533.013041 466.578197 
L 543.013041 466.578197 
L 553.013041 466.578197 
" style="fill: none; stroke: #000000; stroke-width: 1.5; stroke-linecap: square"/>
    <defs>
     <path id="m59cb4cd893" d="M 0 -2.5 
L -0.561285 -0.772542 
L -2.377641 -0.772542 
L -0.908178 0.295085 
L -1.469463 2.022542 
L -0 0.954915 
L 1.469463 2.022542 
L 0.908178 0.295085 
L 2.377641 -0.772542 
L 0.561285 -0.772542 
z
" style="stroke: #000000; stroke-linejoin: bevel"/>
    </defs>
    <g>
     <use xlink:href="#m59cb4cd893" x="543.013041" y="466.578197" style="stroke: #000000; stroke-linejoin: bevel"/>
    </g>
   </g>
   <g id="text_29">
    <!-- Rank16 -->
    <g transform="translate(561.013041 470.078197) scale(0.1 -0.1)">
     <use xlink:href="#DejaVuSans-52"/>
     <use xlink:href="#DejaVuSans-61" x="67.232422"/>
     <use xlink:href="#DejaVuSans-6e" x="128.511719"/>
     <use xlink:href="#DejaVuSans-6b" x="191.890625"/>
     <use xlink:href="#DejaVuSans-31" x="249.800781"/>
     <use xlink:href="#DejaVuSans-36" x="313.423828"/>
    </g>
   </g>
   <g id="line2d_28">
    <path d="M 533.013041 481.256322 
L 543.013041 481.256322 
L 553.013041 481.256322 
" style="fill: none; stroke: #000000; stroke-width: 1.5; stroke-linecap: square"/>
    <defs>
     <path id="m9e486ddcac" d="M 0 -2.5 
L -2.5 2.5 
L 2.5 2.5 
z
" style="stroke: #000000; stroke-linejoin: miter"/>
    </defs>
    <g>
     <use xlink:href="#m9e486ddcac" x="543.013041" y="481.256322" style="stroke: #000000; stroke-linejoin: miter"/>
    </g>
   </g>
   <g id="text_30">
    <!-- Rank9 -->
    <g transform="translate(561.013041 484.756322) scale(0.1 -0.1)">
     <defs>
      <path id="DejaVuSans-39" d="M 703 97 
L 703 672 
Q 941 559 1184 500 
Q 1428 441 1663 441 
Q 2288 441 2617 861 
Q 2947 1281 2994 2138 
Q 2813 1869 2534 1725 
Q 2256 1581 1919 1581 
Q 1219 1581 811 2004 
Q 403 2428 403 3163 
Q 403 3881 828 4315 
Q 1253 4750 1959 4750 
Q 2769 4750 3195 4129 
Q 3622 3509 3622 2328 
Q 3622 1225 3098 567 
Q 2575 -91 1691 -91 
Q 1453 -91 1209 -44 
Q 966 3 703 97 
z
M 1959 2075 
Q 2384 2075 2632 2365 
Q 2881 2656 2881 3163 
Q 2881 3666 2632 3958 
Q 2384 4250 1959 4250 
Q 1534 4250 1286 3958 
Q 1038 3666 1038 3163 
Q 1038 2656 1286 2365 
Q 1534 2075 1959 2075 
z
" transform="scale(0.015625)"/>
     </defs>
     <use xlink:href="#DejaVuSans-52"/>
     <use xlink:href="#DejaVuSans-61" x="67.232422"/>
     <use xlink:href="#DejaVuSans-6e" x="128.511719"/>
     <use xlink:href="#DejaVuSans-6b" x="191.890625"/>
     <use xlink:href="#DejaVuSans-39" x="249.800781"/>
    </g>
   </g>
  </g>
 </g>
 <defs>
  <clipPath id="pdd56b4adf0">
   <rect x="40.603125" y="7.2" width="675.945391" height="395.64327"/>
  </clipPath>
 </defs>
</svg>
